<mxfile host="Electron" modified="2024-03-30T20:07:14.166Z" agent="Mozilla/5.0 (Windows NT 10.0; Win64; x64) AppleWebKit/537.36 (KHTML, like Gecko) draw.io/24.1.0 Chrome/120.0.6099.109 Electron/28.1.0 Safari/537.36" etag="gYFaDXR2yaFaugqtTOmO" version="24.1.0" type="device">
  <diagram name="Page-1" id="10a91c8b-09ff-31b1-d368-03940ed4cc9e">
    <mxGraphModel dx="1871" dy="454" grid="1" gridSize="10" guides="1" tooltips="1" connect="1" arrows="1" fold="1" page="1" pageScale="1" pageWidth="1100" pageHeight="850" background="none" math="0" shadow="0">
      <root>
        <mxCell id="0" />
        <mxCell id="1" parent="0" />
        <mxCell id="wmZmUEkfOFmcSzmyiwCO-7" style="rounded=0;orthogonalLoop=1;jettySize=auto;html=1;exitX=0;exitY=1;exitDx=0;exitDy=0;entryX=1;entryY=0;entryDx=0;entryDy=0;fontSize=10;" parent="1" source="wmZmUEkfOFmcSzmyiwCO-1" target="wmZmUEkfOFmcSzmyiwCO-2" edge="1">
          <mxGeometry relative="1" as="geometry" />
        </mxCell>
        <mxCell id="wmZmUEkfOFmcSzmyiwCO-8" style="rounded=0;orthogonalLoop=1;jettySize=auto;html=1;exitX=1;exitY=1;exitDx=0;exitDy=0;entryX=0;entryY=0;entryDx=0;entryDy=0;fontSize=10;" parent="1" source="wmZmUEkfOFmcSzmyiwCO-1" target="wmZmUEkfOFmcSzmyiwCO-27" edge="1">
          <mxGeometry relative="1" as="geometry">
            <mxPoint x="215.85786437626894" y="75.85786437626894" as="targetPoint" />
          </mxGeometry>
        </mxCell>
        <mxCell id="wmZmUEkfOFmcSzmyiwCO-1" value="{ }" style="ellipse;whiteSpace=wrap;html=1;aspect=fixed;fontSize=10;" parent="1" vertex="1">
          <mxGeometry x="140" y="20" width="40" height="40" as="geometry" />
        </mxCell>
        <mxCell id="wmZmUEkfOFmcSzmyiwCO-14" style="rounded=0;orthogonalLoop=1;jettySize=auto;html=1;exitX=0;exitY=1;exitDx=0;exitDy=0;entryX=1;entryY=0;entryDx=0;entryDy=0;fontSize=10;" parent="1" source="wmZmUEkfOFmcSzmyiwCO-2" target="wmZmUEkfOFmcSzmyiwCO-11" edge="1">
          <mxGeometry relative="1" as="geometry" />
        </mxCell>
        <mxCell id="wmZmUEkfOFmcSzmyiwCO-16" style="rounded=0;orthogonalLoop=1;jettySize=auto;html=1;exitX=1;exitY=1;exitDx=0;exitDy=0;entryX=0;entryY=0;entryDx=0;entryDy=0;fontSize=10;" parent="1" source="wmZmUEkfOFmcSzmyiwCO-2" target="wmZmUEkfOFmcSzmyiwCO-21" edge="1">
          <mxGeometry relative="1" as="geometry">
            <mxPoint x="75.85786437626916" y="125.8578643762691" as="targetPoint" />
          </mxGeometry>
        </mxCell>
        <mxCell id="wmZmUEkfOFmcSzmyiwCO-2" value="{1}" style="ellipse;whiteSpace=wrap;html=1;aspect=fixed;fontSize=10;" parent="1" vertex="1">
          <mxGeometry y="70" width="40" height="40" as="geometry" />
        </mxCell>
        <mxCell id="wmZmUEkfOFmcSzmyiwCO-4" value="Influencer 1" style="rounded=0;whiteSpace=wrap;html=1;fontSize=10;" parent="1" vertex="1">
          <mxGeometry x="-200" y="77.5" width="70" height="25" as="geometry" />
        </mxCell>
        <mxCell id="wmZmUEkfOFmcSzmyiwCO-9" style="rounded=0;orthogonalLoop=1;jettySize=auto;html=1;exitX=0;exitY=1;exitDx=0;exitDy=0;entryX=1;entryY=0;entryDx=0;entryDy=0;fontSize=10;" parent="1" source="wmZmUEkfOFmcSzmyiwCO-11" target="wmZmUEkfOFmcSzmyiwCO-12" edge="1">
          <mxGeometry relative="1" as="geometry" />
        </mxCell>
        <mxCell id="wmZmUEkfOFmcSzmyiwCO-10" style="rounded=0;orthogonalLoop=1;jettySize=auto;html=1;exitX=1;exitY=1;exitDx=0;exitDy=0;entryX=0;entryY=0;entryDx=0;entryDy=0;fontSize=10;" parent="1" source="wmZmUEkfOFmcSzmyiwCO-11" target="wmZmUEkfOFmcSzmyiwCO-13" edge="1">
          <mxGeometry relative="1" as="geometry" />
        </mxCell>
        <mxCell id="wmZmUEkfOFmcSzmyiwCO-11" value="{1, 2}" style="ellipse;whiteSpace=wrap;html=1;aspect=fixed;fontSize=10;" parent="1" vertex="1">
          <mxGeometry x="-70" y="120" width="40" height="40" as="geometry" />
        </mxCell>
        <mxCell id="wmZmUEkfOFmcSzmyiwCO-12" value="&lt;font style=&quot;font-size: 10px;&quot;&gt;{1, 2, 3}&lt;/font&gt;" style="ellipse;whiteSpace=wrap;html=1;aspect=fixed;fontSize=10;" parent="1" vertex="1">
          <mxGeometry x="-110" y="170" width="40" height="40" as="geometry" />
        </mxCell>
        <mxCell id="wmZmUEkfOFmcSzmyiwCO-13" value="{1, 2}" style="ellipse;whiteSpace=wrap;html=1;aspect=fixed;fontSize=10;" parent="1" vertex="1">
          <mxGeometry x="-30" y="170" width="40" height="40" as="geometry" />
        </mxCell>
        <mxCell id="wmZmUEkfOFmcSzmyiwCO-17" value="Influencer 2" style="rounded=0;whiteSpace=wrap;html=1;fontSize=10;" parent="1" vertex="1">
          <mxGeometry x="-200" y="127.5" width="70" height="25" as="geometry" />
        </mxCell>
        <mxCell id="wmZmUEkfOFmcSzmyiwCO-18" value="Influencer 3" style="rounded=0;whiteSpace=wrap;html=1;fontSize=10;" parent="1" vertex="1">
          <mxGeometry x="-200" y="177.5" width="70" height="25" as="geometry" />
        </mxCell>
        <mxCell id="wmZmUEkfOFmcSzmyiwCO-19" style="rounded=0;orthogonalLoop=1;jettySize=auto;html=1;exitX=0;exitY=1;exitDx=0;exitDy=0;entryX=1;entryY=0;entryDx=0;entryDy=0;fontSize=10;" parent="1" source="wmZmUEkfOFmcSzmyiwCO-21" target="wmZmUEkfOFmcSzmyiwCO-22" edge="1">
          <mxGeometry relative="1" as="geometry" />
        </mxCell>
        <mxCell id="wmZmUEkfOFmcSzmyiwCO-20" style="rounded=0;orthogonalLoop=1;jettySize=auto;html=1;exitX=1;exitY=1;exitDx=0;exitDy=0;entryX=0;entryY=0;entryDx=0;entryDy=0;fontSize=10;" parent="1" source="wmZmUEkfOFmcSzmyiwCO-21" target="wmZmUEkfOFmcSzmyiwCO-23" edge="1">
          <mxGeometry relative="1" as="geometry" />
        </mxCell>
        <mxCell id="wmZmUEkfOFmcSzmyiwCO-21" value="{1}" style="ellipse;whiteSpace=wrap;html=1;aspect=fixed;fontSize=10;" parent="1" vertex="1">
          <mxGeometry x="70" y="120" width="40" height="40" as="geometry" />
        </mxCell>
        <mxCell id="wmZmUEkfOFmcSzmyiwCO-22" value="&lt;font style=&quot;font-size: 10px;&quot;&gt;{1, 3}&lt;/font&gt;" style="ellipse;whiteSpace=wrap;html=1;aspect=fixed;fontSize=10;" parent="1" vertex="1">
          <mxGeometry x="30" y="170" width="40" height="40" as="geometry" />
        </mxCell>
        <mxCell id="wmZmUEkfOFmcSzmyiwCO-23" value="{1}" style="ellipse;whiteSpace=wrap;html=1;aspect=fixed;fontSize=10;" parent="1" vertex="1">
          <mxGeometry x="110" y="170" width="40" height="40" as="geometry" />
        </mxCell>
        <mxCell id="wmZmUEkfOFmcSzmyiwCO-25" style="rounded=0;orthogonalLoop=1;jettySize=auto;html=1;exitX=0;exitY=1;exitDx=0;exitDy=0;entryX=1;entryY=0;entryDx=0;entryDy=0;fontSize=10;" parent="1" source="wmZmUEkfOFmcSzmyiwCO-27" target="wmZmUEkfOFmcSzmyiwCO-30" edge="1">
          <mxGeometry relative="1" as="geometry" />
        </mxCell>
        <mxCell id="wmZmUEkfOFmcSzmyiwCO-26" style="rounded=0;orthogonalLoop=1;jettySize=auto;html=1;exitX=1;exitY=1;exitDx=0;exitDy=0;entryX=0;entryY=0;entryDx=0;entryDy=0;fontSize=10;" parent="1" source="wmZmUEkfOFmcSzmyiwCO-27" target="wmZmUEkfOFmcSzmyiwCO-35" edge="1">
          <mxGeometry relative="1" as="geometry">
            <mxPoint x="355.85786437626916" y="125.8578643762691" as="targetPoint" />
          </mxGeometry>
        </mxCell>
        <mxCell id="wmZmUEkfOFmcSzmyiwCO-27" value="{ }" style="ellipse;whiteSpace=wrap;html=1;aspect=fixed;fontSize=10;" parent="1" vertex="1">
          <mxGeometry x="280" y="70" width="40" height="40" as="geometry" />
        </mxCell>
        <mxCell id="wmZmUEkfOFmcSzmyiwCO-28" style="rounded=0;orthogonalLoop=1;jettySize=auto;html=1;exitX=0;exitY=1;exitDx=0;exitDy=0;entryX=1;entryY=0;entryDx=0;entryDy=0;fontSize=10;" parent="1" source="wmZmUEkfOFmcSzmyiwCO-30" target="wmZmUEkfOFmcSzmyiwCO-31" edge="1">
          <mxGeometry relative="1" as="geometry" />
        </mxCell>
        <mxCell id="wmZmUEkfOFmcSzmyiwCO-29" style="rounded=0;orthogonalLoop=1;jettySize=auto;html=1;exitX=1;exitY=1;exitDx=0;exitDy=0;entryX=0;entryY=0;entryDx=0;entryDy=0;fontSize=10;" parent="1" source="wmZmUEkfOFmcSzmyiwCO-30" target="wmZmUEkfOFmcSzmyiwCO-32" edge="1">
          <mxGeometry relative="1" as="geometry" />
        </mxCell>
        <mxCell id="wmZmUEkfOFmcSzmyiwCO-30" value="{2}" style="ellipse;whiteSpace=wrap;html=1;aspect=fixed;fontSize=10;" parent="1" vertex="1">
          <mxGeometry x="210" y="120" width="40" height="40" as="geometry" />
        </mxCell>
        <mxCell id="wmZmUEkfOFmcSzmyiwCO-31" value="&lt;font style=&quot;font-size: 10px;&quot;&gt;{2, 3}&lt;/font&gt;" style="ellipse;whiteSpace=wrap;html=1;aspect=fixed;fontSize=10;" parent="1" vertex="1">
          <mxGeometry x="170" y="170" width="40" height="40" as="geometry" />
        </mxCell>
        <mxCell id="wmZmUEkfOFmcSzmyiwCO-32" value="{2}" style="ellipse;whiteSpace=wrap;html=1;aspect=fixed;fontSize=10;" parent="1" vertex="1">
          <mxGeometry x="250" y="170" width="40" height="40" as="geometry" />
        </mxCell>
        <mxCell id="wmZmUEkfOFmcSzmyiwCO-33" style="rounded=0;orthogonalLoop=1;jettySize=auto;html=1;exitX=0;exitY=1;exitDx=0;exitDy=0;entryX=1;entryY=0;entryDx=0;entryDy=0;fontSize=10;" parent="1" source="wmZmUEkfOFmcSzmyiwCO-35" target="wmZmUEkfOFmcSzmyiwCO-36" edge="1">
          <mxGeometry relative="1" as="geometry" />
        </mxCell>
        <mxCell id="wmZmUEkfOFmcSzmyiwCO-34" style="rounded=0;orthogonalLoop=1;jettySize=auto;html=1;exitX=1;exitY=1;exitDx=0;exitDy=0;entryX=0;entryY=0;entryDx=0;entryDy=0;fontSize=10;" parent="1" source="wmZmUEkfOFmcSzmyiwCO-35" target="wmZmUEkfOFmcSzmyiwCO-37" edge="1">
          <mxGeometry relative="1" as="geometry" />
        </mxCell>
        <mxCell id="wmZmUEkfOFmcSzmyiwCO-35" value="{ }" style="ellipse;whiteSpace=wrap;html=1;aspect=fixed;fontSize=10;" parent="1" vertex="1">
          <mxGeometry x="350" y="120" width="40" height="40" as="geometry" />
        </mxCell>
        <mxCell id="wmZmUEkfOFmcSzmyiwCO-36" value="&lt;font style=&quot;font-size: 10px;&quot;&gt;{3}&lt;/font&gt;" style="ellipse;whiteSpace=wrap;html=1;aspect=fixed;fontSize=10;" parent="1" vertex="1">
          <mxGeometry x="310" y="170" width="40" height="40" as="geometry" />
        </mxCell>
        <mxCell id="wmZmUEkfOFmcSzmyiwCO-37" value="{ }" style="ellipse;whiteSpace=wrap;html=1;aspect=fixed;fontSize=10;" parent="1" vertex="1">
          <mxGeometry x="390" y="170" width="40" height="40" as="geometry" />
        </mxCell>
        <mxCell id="vKUpy7y32TsNrQesHwhA-65" style="rounded=0;orthogonalLoop=1;jettySize=auto;html=1;exitX=0;exitY=1;exitDx=0;exitDy=0;entryX=1;entryY=0;entryDx=0;entryDy=0;fontSize=10;" edge="1" source="vKUpy7y32TsNrQesHwhA-67" target="vKUpy7y32TsNrQesHwhA-70" parent="1">
          <mxGeometry relative="1" as="geometry" />
        </mxCell>
        <mxCell id="vKUpy7y32TsNrQesHwhA-66" style="rounded=0;orthogonalLoop=1;jettySize=auto;html=1;exitX=1;exitY=1;exitDx=0;exitDy=0;entryX=0;entryY=0;entryDx=0;entryDy=0;fontSize=10;" edge="1" source="vKUpy7y32TsNrQesHwhA-67" target="vKUpy7y32TsNrQesHwhA-86" parent="1">
          <mxGeometry relative="1" as="geometry">
            <mxPoint x="205.85786437626894" y="405.85786437626894" as="targetPoint" />
          </mxGeometry>
        </mxCell>
        <mxCell id="vKUpy7y32TsNrQesHwhA-67" value="{ }" style="ellipse;whiteSpace=wrap;html=1;aspect=fixed;fontSize=10;" vertex="1" parent="1">
          <mxGeometry x="130" y="350" width="40" height="40" as="geometry" />
        </mxCell>
        <mxCell id="vKUpy7y32TsNrQesHwhA-68" style="rounded=0;orthogonalLoop=1;jettySize=auto;html=1;exitX=0;exitY=1;exitDx=0;exitDy=0;entryX=1;entryY=0;entryDx=0;entryDy=0;fontSize=10;" edge="1" source="vKUpy7y32TsNrQesHwhA-70" target="vKUpy7y32TsNrQesHwhA-74" parent="1">
          <mxGeometry relative="1" as="geometry" />
        </mxCell>
        <mxCell id="vKUpy7y32TsNrQesHwhA-69" style="rounded=0;orthogonalLoop=1;jettySize=auto;html=1;exitX=1;exitY=1;exitDx=0;exitDy=0;entryX=0;entryY=0;entryDx=0;entryDy=0;fontSize=10;" edge="1" source="vKUpy7y32TsNrQesHwhA-70" target="vKUpy7y32TsNrQesHwhA-81" parent="1">
          <mxGeometry relative="1" as="geometry">
            <mxPoint x="65.85786437626916" y="455.8578643762691" as="targetPoint" />
          </mxGeometry>
        </mxCell>
        <mxCell id="vKUpy7y32TsNrQesHwhA-70" value="{J}" style="ellipse;whiteSpace=wrap;html=1;aspect=fixed;fontSize=10;" vertex="1" parent="1">
          <mxGeometry x="-10" y="400" width="40" height="40" as="geometry" />
        </mxCell>
        <mxCell id="vKUpy7y32TsNrQesHwhA-71" value="Jorge (J)" style="rounded=0;whiteSpace=wrap;html=1;fontSize=10;" vertex="1" parent="1">
          <mxGeometry x="-170" y="407.5" width="70" height="25" as="geometry" />
        </mxCell>
        <mxCell id="vKUpy7y32TsNrQesHwhA-74" value="{J, G}" style="ellipse;whiteSpace=wrap;html=1;aspect=fixed;fontSize=10;" vertex="1" parent="1">
          <mxGeometry x="-80" y="450" width="40" height="40" as="geometry" />
        </mxCell>
        <mxCell id="vKUpy7y32TsNrQesHwhA-77" value="Gabriel (G)" style="rounded=0;whiteSpace=wrap;html=1;fontSize=10;" vertex="1" parent="1">
          <mxGeometry x="-170" y="457.5" width="70" height="25" as="geometry" />
        </mxCell>
        <mxCell id="vKUpy7y32TsNrQesHwhA-78" value="Pedro (P)" style="rounded=0;whiteSpace=wrap;html=1;fontSize=10;" vertex="1" parent="1">
          <mxGeometry x="-170" y="507.5" width="70" height="25" as="geometry" />
        </mxCell>
        <mxCell id="vKUpy7y32TsNrQesHwhA-79" style="rounded=0;orthogonalLoop=1;jettySize=auto;html=1;exitX=0;exitY=1;exitDx=0;exitDy=0;entryX=1;entryY=0;entryDx=0;entryDy=0;fontSize=10;" edge="1" source="vKUpy7y32TsNrQesHwhA-81" target="vKUpy7y32TsNrQesHwhA-82" parent="1">
          <mxGeometry relative="1" as="geometry" />
        </mxCell>
        <mxCell id="vKUpy7y32TsNrQesHwhA-80" style="rounded=0;orthogonalLoop=1;jettySize=auto;html=1;exitX=1;exitY=1;exitDx=0;exitDy=0;entryX=0;entryY=0;entryDx=0;entryDy=0;fontSize=10;" edge="1" source="vKUpy7y32TsNrQesHwhA-81" target="vKUpy7y32TsNrQesHwhA-83" parent="1">
          <mxGeometry relative="1" as="geometry" />
        </mxCell>
        <mxCell id="vKUpy7y32TsNrQesHwhA-81" value="{J}" style="ellipse;whiteSpace=wrap;html=1;aspect=fixed;fontSize=10;" vertex="1" parent="1">
          <mxGeometry x="60" y="450" width="40" height="40" as="geometry" />
        </mxCell>
        <mxCell id="vKUpy7y32TsNrQesHwhA-82" value="&lt;font style=&quot;font-size: 10px;&quot;&gt;{J, P}&lt;/font&gt;" style="ellipse;whiteSpace=wrap;html=1;aspect=fixed;fontSize=10;" vertex="1" parent="1">
          <mxGeometry x="20" y="500" width="40" height="40" as="geometry" />
        </mxCell>
        <mxCell id="vKUpy7y32TsNrQesHwhA-83" value="{J}" style="ellipse;whiteSpace=wrap;html=1;aspect=fixed;fontSize=10;" vertex="1" parent="1">
          <mxGeometry x="100" y="500" width="40" height="40" as="geometry" />
        </mxCell>
        <mxCell id="vKUpy7y32TsNrQesHwhA-84" style="rounded=0;orthogonalLoop=1;jettySize=auto;html=1;exitX=0;exitY=1;exitDx=0;exitDy=0;entryX=1;entryY=0;entryDx=0;entryDy=0;fontSize=10;" edge="1" source="vKUpy7y32TsNrQesHwhA-86" target="vKUpy7y32TsNrQesHwhA-89" parent="1">
          <mxGeometry relative="1" as="geometry" />
        </mxCell>
        <mxCell id="vKUpy7y32TsNrQesHwhA-85" style="rounded=0;orthogonalLoop=1;jettySize=auto;html=1;exitX=1;exitY=1;exitDx=0;exitDy=0;entryX=0;entryY=0;entryDx=0;entryDy=0;fontSize=10;" edge="1" source="vKUpy7y32TsNrQesHwhA-86" target="vKUpy7y32TsNrQesHwhA-94" parent="1">
          <mxGeometry relative="1" as="geometry">
            <mxPoint x="345.85786437626916" y="455.8578643762691" as="targetPoint" />
          </mxGeometry>
        </mxCell>
        <mxCell id="vKUpy7y32TsNrQesHwhA-86" value="{ }" style="ellipse;whiteSpace=wrap;html=1;aspect=fixed;fontSize=10;" vertex="1" parent="1">
          <mxGeometry x="270" y="400" width="40" height="40" as="geometry" />
        </mxCell>
        <mxCell id="vKUpy7y32TsNrQesHwhA-87" style="rounded=0;orthogonalLoop=1;jettySize=auto;html=1;exitX=0;exitY=1;exitDx=0;exitDy=0;entryX=1;entryY=0;entryDx=0;entryDy=0;fontSize=10;" edge="1" source="vKUpy7y32TsNrQesHwhA-89" target="vKUpy7y32TsNrQesHwhA-90" parent="1">
          <mxGeometry relative="1" as="geometry" />
        </mxCell>
        <mxCell id="vKUpy7y32TsNrQesHwhA-88" style="rounded=0;orthogonalLoop=1;jettySize=auto;html=1;exitX=1;exitY=1;exitDx=0;exitDy=0;entryX=0;entryY=0;entryDx=0;entryDy=0;fontSize=10;" edge="1" source="vKUpy7y32TsNrQesHwhA-89" target="vKUpy7y32TsNrQesHwhA-91" parent="1">
          <mxGeometry relative="1" as="geometry" />
        </mxCell>
        <mxCell id="vKUpy7y32TsNrQesHwhA-89" value="{G}" style="ellipse;whiteSpace=wrap;html=1;aspect=fixed;fontSize=10;" vertex="1" parent="1">
          <mxGeometry x="200" y="450" width="40" height="40" as="geometry" />
        </mxCell>
        <mxCell id="vKUpy7y32TsNrQesHwhA-90" value="&lt;font style=&quot;font-size: 10px;&quot;&gt;{G, P}&lt;/font&gt;" style="ellipse;whiteSpace=wrap;html=1;aspect=fixed;fontSize=10;fillColor=#d5e8d4;strokeColor=#82b366;" vertex="1" parent="1">
          <mxGeometry x="160" y="500" width="40" height="40" as="geometry" />
        </mxCell>
        <mxCell id="vKUpy7y32TsNrQesHwhA-91" value="{G}" style="ellipse;whiteSpace=wrap;html=1;aspect=fixed;fontSize=10;" vertex="1" parent="1">
          <mxGeometry x="240" y="500" width="40" height="40" as="geometry" />
        </mxCell>
        <mxCell id="vKUpy7y32TsNrQesHwhA-92" style="rounded=0;orthogonalLoop=1;jettySize=auto;html=1;exitX=0;exitY=1;exitDx=0;exitDy=0;entryX=1;entryY=0;entryDx=0;entryDy=0;fontSize=10;" edge="1" source="vKUpy7y32TsNrQesHwhA-94" target="vKUpy7y32TsNrQesHwhA-95" parent="1">
          <mxGeometry relative="1" as="geometry" />
        </mxCell>
        <mxCell id="vKUpy7y32TsNrQesHwhA-93" style="rounded=0;orthogonalLoop=1;jettySize=auto;html=1;exitX=1;exitY=1;exitDx=0;exitDy=0;entryX=0;entryY=0;entryDx=0;entryDy=0;fontSize=10;" edge="1" source="vKUpy7y32TsNrQesHwhA-94" target="vKUpy7y32TsNrQesHwhA-96" parent="1">
          <mxGeometry relative="1" as="geometry" />
        </mxCell>
        <mxCell id="vKUpy7y32TsNrQesHwhA-94" value="{ }" style="ellipse;whiteSpace=wrap;html=1;aspect=fixed;fontSize=10;" vertex="1" parent="1">
          <mxGeometry x="340" y="450" width="40" height="40" as="geometry" />
        </mxCell>
        <mxCell id="vKUpy7y32TsNrQesHwhA-95" value="&lt;font style=&quot;font-size: 10px;&quot;&gt;{P}&lt;/font&gt;" style="ellipse;whiteSpace=wrap;html=1;aspect=fixed;fontSize=10;" vertex="1" parent="1">
          <mxGeometry x="300" y="500" width="40" height="40" as="geometry" />
        </mxCell>
        <mxCell id="vKUpy7y32TsNrQesHwhA-96" value="{ }" style="ellipse;whiteSpace=wrap;html=1;aspect=fixed;fontSize=10;" vertex="1" parent="1">
          <mxGeometry x="380" y="500" width="40" height="40" as="geometry" />
        </mxCell>
        <mxCell id="vKUpy7y32TsNrQesHwhA-97" value="" style="shape=cross;whiteSpace=wrap;html=1;rotation=45;fillColor=#f8cecc;strokeColor=#b85450;textOpacity=50;opacity=50;" vertex="1" parent="1">
          <mxGeometry x="-85" y="445" width="50" height="50" as="geometry" />
        </mxCell>
        <mxCell id="vKUpy7y32TsNrQesHwhA-98" value="" style="shape=cross;whiteSpace=wrap;html=1;rotation=45;fillColor=#f8cecc;strokeColor=#b85450;textOpacity=50;opacity=50;" vertex="1" parent="1">
          <mxGeometry x="15" y="495" width="50" height="50" as="geometry" />
        </mxCell>
        <mxCell id="vKUpy7y32TsNrQesHwhA-99" value="1" style="text;html=1;align=center;verticalAlign=middle;whiteSpace=wrap;rounded=0;" vertex="1" parent="1">
          <mxGeometry x="65" y="365" width="20" height="25" as="geometry" />
        </mxCell>
        <mxCell id="vKUpy7y32TsNrQesHwhA-101" value="2" style="text;html=1;align=center;verticalAlign=middle;whiteSpace=wrap;rounded=0;" vertex="1" parent="1">
          <mxGeometry x="40" y="425" width="20" height="25" as="geometry" />
        </mxCell>
        <mxCell id="vKUpy7y32TsNrQesHwhA-104" value="3" style="text;html=1;align=center;verticalAlign=middle;whiteSpace=wrap;rounded=0;" vertex="1" parent="1">
          <mxGeometry x="100" y="475" width="20" height="25" as="geometry" />
        </mxCell>
        <mxCell id="vKUpy7y32TsNrQesHwhA-105" value="4" style="text;html=1;align=center;verticalAlign=middle;whiteSpace=wrap;rounded=0;" vertex="1" parent="1">
          <mxGeometry x="200" y="365" width="20" height="25" as="geometry" />
        </mxCell>
        <mxCell id="vKUpy7y32TsNrQesHwhA-106" value="5" style="text;html=1;align=center;verticalAlign=middle;whiteSpace=wrap;rounded=0;" vertex="1" parent="1">
          <mxGeometry x="240" y="420" width="20" height="25" as="geometry" />
        </mxCell>
        <mxCell id="vKUpy7y32TsNrQesHwhA-107" value="6" style="text;html=1;align=center;verticalAlign=middle;whiteSpace=wrap;rounded=0;" vertex="1" parent="1">
          <mxGeometry x="180" y="475" width="20" height="25" as="geometry" />
        </mxCell>
        <mxCell id="vKUpy7y32TsNrQesHwhA-108" value="7" style="text;html=1;align=center;verticalAlign=middle;whiteSpace=wrap;rounded=0;" vertex="1" parent="1">
          <mxGeometry x="240" y="475" width="20" height="25" as="geometry" />
        </mxCell>
        <mxCell id="vKUpy7y32TsNrQesHwhA-109" value="" style="shape=cross;whiteSpace=wrap;html=1;rotation=45;fillColor=#f8cecc;strokeColor=#b85450;textOpacity=50;opacity=50;" vertex="1" parent="1">
          <mxGeometry x="295" y="495" width="50" height="50" as="geometry" />
        </mxCell>
        <mxCell id="vKUpy7y32TsNrQesHwhA-110" value="" style="shape=cross;whiteSpace=wrap;html=1;rotation=45;fillColor=#f8cecc;strokeColor=#b85450;textOpacity=50;opacity=50;" vertex="1" parent="1">
          <mxGeometry x="375" y="495" width="50" height="50" as="geometry" />
        </mxCell>
        <mxCell id="vKUpy7y32TsNrQesHwhA-112" value="8" style="text;html=1;align=center;verticalAlign=middle;whiteSpace=wrap;rounded=0;" vertex="1" parent="1">
          <mxGeometry x="320" y="420" width="20" height="25" as="geometry" />
        </mxCell>
      </root>
    </mxGraphModel>
  </diagram>
</mxfile>
